<?xml version="1.0" encoding="UTF-8" standalone="no"?><!DOCTYPE svg PUBLIC "-//W3C//DTD SVG 1.1//EN" "http://www.w3.org/Graphics/SVG/1.1/DTD/svg11.dtd"><svg width="100%" height="100%" viewBox="0 0 62 62" version="1.1" xmlns="http://www.w3.org/2000/svg" xmlns:xlink="http://www.w3.org/1999/xlink" xml:space="preserve" xmlns:serif="http://www.serif.com/" style="fill-rule:evenodd;clip-rule:evenodd;stroke-linejoin:round;stroke-miterlimit:2;"><rect id="favicon" x="0" y="0" width="61.44" height="61.44"/><g id="Layer1"><g><path d="M3.84,57.6l0,-53.76l8.741,0l0,29.304l6.68,0l10.199,-16.049l9.84,0l-12.499,19.541l12.72,20.963l-10.022,0l-10.235,-17.022l-6.684,0l0,17.022l-8.741,0Z" style="fill:#fff;fill-rule:nonzero;"/><path d="M49.92,58.559c-2.046,0 -3.677,-0.602 -4.894,-1.807c-1.217,-1.205 -1.826,-2.816 -1.826,-4.836c-0,-2.094 0.609,-3.751 1.826,-4.969c1.217,-1.218 2.849,-1.827 4.894,-1.827c2.068,0 3.706,0.609 4.911,1.827c1.206,1.218 1.809,2.875 1.809,4.969c0,2.019 -0.603,3.631 -1.809,4.836c-1.206,1.205 -2.843,1.807 -4.911,1.807Z" style="fill:#f00;fill-rule:nonzero;"/></g></g></svg>